# xmcd
#
# Track frame offsets:
#	180
#	18184
#	36473
#	52716
#	69300
#	83805
#	102174
#	118953
#	135139
#	148679
#
# Disc length: 2219 seconds
#
# Revision: 1
# Processed by: cddbd v1.5.1PL2 Copyright (c) Steve Scherf et al.
# Submitted via: audiograbber 1.83.01
#
DISCID=7c08a90a
DTITLE=Minea - E, pa neka!
DYEAR=1997
DGENRE=
TTITLE0=E, pa neka
TTITLE1=Ako ovo ja kraj
TTITLE2=Madarica
TTITLE3=O, Ma-ma-ma
TTITLE4=Daj, daj, daj
TTITLE5=Prst i Ruka
TTITLE6=Tri di srece bacila
TTITLE7=Lasta, lastavica
TTITLE8=Magla
TTITLE9=E, pa neka (instrumental)
EXTD=
EXTT0=
EXTT1=
EXTT2=
EXTT3=
EXTT4=
EXTT5=
EXTT6=
EXTT7=
EXTT8=
EXTT9=
PLAYORDER=
